<svg aria-hidden="true" style="position: absolute; width: 0; height: 0; overflow: hidden;" version="1.1" xmlns="http://www.w3.org/2000/svg" xmlns:xlink="http://www.w3.org/1999/xlink">
<defs>
<symbol id="icon-cog" viewBox="0 0 20 20">
<title>cog</title>
<path d="M3.94 6.5l-1.72-2.86 1.42-1.42 2.86 1.72c0.52-0.3 1.1-0.54 1.7-0.7l0.8-3.24h2l0.8 3.24c0.6 0.16 1.18 0.4 1.7 0.7l2.86-1.72 1.42 1.42-1.72 2.86c0.3 0.52 0.54 1.1 0.7 1.7l3.24 0.8v2l-3.24 0.8c-0.16 0.6-0.4 1.18-0.7 1.7l1.72 2.86-1.42 1.42-2.86-1.72c-0.52 0.3-1.1 0.54-1.7 0.7l-0.8 3.24h-2l-0.8-3.24c-0.6-0.16-1.18-0.4-1.7-0.7l-2.86 1.72-1.42-1.42 1.72-2.86c-0.3-0.52-0.54-1.1-0.7-1.7l-3.24-0.8v-2l3.24-0.8c0.16-0.6 0.4-1.18 0.7-1.7zM10 13c1.657 0 3-1.343 3-3s-1.343-3-3-3v0c-1.657 0-3 1.343-3 3s1.343 3 3 3v0z"></path>
</symbol>
<symbol id="icon-credit-card" viewBox="0 0 20 20">
<title>credit-card</title>
<path d="M18 6v-2h-16v2h16zM18 10h-16v6h16v-6zM0 4c0-1.1 0.9-2 2-2h16c1.105 0 2 0.895 2 2v0 12c0 1.105-0.895 2-2 2v0h-16c-1.105 0-2-0.895-2-2v0-12zM4 12h4v2h-4v-2z"></path>
</symbol>
<symbol id="icon-date-add" viewBox="0 0 20 20">
<title>date-add</title>
<path d="M15 2h2c1.105 0 2 0.895 2 2v0 14c0 1.105-0.895 2-2 2v0h-14c-1.105 0-2-0.895-2-2v0-14c0-1.1 0.9-2 2-2h2v-2h2v2h6v-2h2v2zM3 6v12h14v-12h-14zM9 11v-2h2v2h2v2h-2v2h-2v-2h-2v-2h2z"></path>
</symbol>
<symbol id="icon-mood-happy-solid" viewBox="0 0 20 20">
<title>mood-happy-solid</title>
<path d="M10 20c-5.523 0-10-4.477-10-10s4.477-10 10-10v0c5.523 0 10 4.477 10 10s-4.477 10-10 10v0zM6.5 9c0.828 0 1.5-0.672 1.5-1.5s-0.672-1.5-1.5-1.5v0c-0.828 0-1.5 0.672-1.5 1.5s0.672 1.5 1.5 1.5v0zM13.5 9c0.828 0 1.5-0.672 1.5-1.5s-0.672-1.5-1.5-1.5v0c-0.828 0-1.5 0.672-1.5 1.5s0.672 1.5 1.5 1.5v0zM15.66 12h-11.32c0.846 2.355 3.060 4.009 5.66 4.009s4.814-1.654 5.647-3.967l0.013-0.042z"></path>
</symbol>
<symbol id="icon-notification" viewBox="0 0 20 20">
<title>notification</title>
<path d="M4 8c0-0.001 0-0.002 0-0.003 0-2.608 1.664-4.827 3.988-5.654l0.042-0.013c-0.016-0.095-0.025-0.204-0.025-0.315 0-1.105 0.895-2 2-2s2 0.895 2 2c0 0.111-0.009 0.22-0.027 0.327l0.002-0.012c2.361 0.843 4.020 3.060 4.020 5.664 0 0.002 0 0.004 0 0.006v-0 6l3 2v1h-18v-1l3-2v-6zM12 18c0 1.105-0.895 2-2 2s-2-0.895-2-2v0h4z"></path>
</symbol>
<symbol id="icon-user" viewBox="0 0 20 20">
<title>user</title>
<path d="M5 5c0-2.761 2.239-5 5-5s5 2.239 5 5v0 2c0 2.761-2.239 5-5 5s-5-2.239-5-5v0-2zM0 16.68c2.86-1.685 6.301-2.68 9.974-2.68 0.009 0 0.018 0 0.027 0h-0.001c3.64 0 7.060 0.97 10 2.68v3.32h-20v-3.32z"></path>
</symbol>
</defs>
</svg>
